# xmcd
#
# Track frame offsets:
#	150
#	11265
#	23317
#	36047
#	47531
#	59311
#	68050
#	78573
#	91562
#	102532
#	112629
#	121856
#	134750
#	147376
#	159122
#	177097
#	188924
#	201840
#	217444
#	228889
#	239714
#	248631
#	259502
#	270263
#	281529
#	291814
#	305137
#	315398
#	325332
#	336120
#	347273
#
# Disc length: 4786 seconds
#
# Revision: 0
# Processed by: cddbd v1.5.1PL2 Copyright (c) Steve Scherf et al.
# Submitted via: EasyCDDAExtractor 4.6.9.1
#
DISCID=aa12b01f
DTITLE=Connie Smith - Born To Sing - Disc 2
DYEAR=2001
DGENRE=Country
TTITLE0=Nobody But A Fool (Would Love You)
TTITLE1=I'll Nover Get Over Loving You
TTITLE2=Go Ahead And Make Me Cry
TTITLE3=In My Baby's Arms Again
TTITLE4=For Better Or For Worse
TTITLE5=Ain't Nothin' Shakin' (But The Leaves)
TTITLE6=Where Could I Go But To The Lord
TTITLE7=Farther Along
TTITLE8=When God Dips His Love In My Heart
TTITLE9=He Set Me Free
TTITLE10=Wings Of A Dove
TTITLE11=I Saw A Man
TTITLE12=Just A Closer Walk With Thee
TTITLE13=Po' Folks
TTITLE14=Four Walls
TTITLE15=Cry, Cry, Cry
TTITLE16=In The Garden
TTITLE17=The Wayfarin' Pilgrim
TTITLE18=Keep On Holding To These Nail Scarred Hands
TTITLE19=Satisfied
TTITLE20=I Wouldn't Take Nothin' For My Journey
TTITLE21=Five Fingers To Spare
TTITLE22=Ain't Had No Lovin'
TTITLE23=You And Only You
TTITLE24=Strange
TTITLE25=Go Away Stranger
TTITLE26=A Touch Of Yesterday
TTITLE27=Born To Sing
TTITLE28=Invisible Tears
TTITLE29=Paper Roses
TTITLE30=I Don't Know Why I Keep Loving You
EXTD=
EXTT0=
EXTT1=
EXTT2=
EXTT3=
EXTT4=
EXTT5=
EXTT6=
EXTT7=
EXTT8=
EXTT9=
EXTT10=
EXTT11=
EXTT12=
EXTT13=
EXTT14=
EXTT15=
EXTT16=
EXTT17=
EXTT18=
EXTT19=
EXTT20=
EXTT21=
EXTT22=
EXTT23=
EXTT24=
EXTT25=
EXTT26=
EXTT27=
EXTT28=
EXTT29=
EXTT30=
PLAYORDER=
